<svg xmlns="http://www.w3.org/2000/svg" viewBox="0 0 24 24">
  <style>
    path {
      fill: #191919;
    }
    @media (prefers-color-scheme: dark) {
      path {
        fill: #ff6900;
      }
    }
  </style>
  <path d="M21.5,11H20v-1c0-1.6-0.9-2.5-2.5-2.5H12l0,0H2.5C0.9,7.5,0,8.3,0,10v4c0,1.6,0.9,2.5,2.5,2.5H12l0,0c0.6,0,9.5,0,9.5,0c1.6,0,2.5-0.9,2.5-2.5v-0.6C24,11.9,23.1,11,21.5,11z M21,14.5h-9l0,0H3c-0.6,0-0.7-0.1-0.7-0.7v-3.5c0-0.6,0.1-0.7,0.7-0.7h9l0,0h5c0.6,0,0.7,0.1,0.7,0.7V11H12v2h9c0.6,0,0.7,0.1,0.7,0.7C21.7,14.4,21.6,14.5,21,14.5z" />
</svg>

